<svg xmlns="http://www.w3.org/2000/svg" xmlns:xlink="http://www.w3.org/1999/xlink" width="147" height="142" viewBox="0 0 147 142">
  <defs>
    <clipPath id="clip-path">
      <rect id="Rechteck_2" data-name="Rechteck 2" width="147" height="142" transform="translate(199 114)" fill="#fff" stroke="#707070" stroke-width="1"/>
    </clipPath>
    <clipPath id="clip-path-2">
      <rect id="Rechteck_1" data-name="Rechteck 1" width="204.701" height="409.401" fill="none"/>
    </clipPath>
  </defs>
  <g id="Kibera_Hope_Logo_-_schwarz_neu" data-name="Kibera Hope Logo - schwarz  neu" transform="translate(-199 -114)" clip-path="url(#clip-path)">
    <g id="Gruppe_2" data-name="Gruppe 2" transform="translate(171.49 104.371)">
      <g id="Gruppe_1" data-name="Gruppe 1" transform="translate(0)" clip-path="url(#clip-path-2)">
        <path id="Pfad_1" data-name="Pfad 1" d="M65.669,79.089a1.674,1.674,0,0,1,.288.673h.1V79.57q-.24-.577-.384-.577Zm-.192-.336h.1v-.192h-.1Zm-.1-.289h.1v-.193h-.1ZM59.95,69.092v.1h.1a.593.593,0,0,1,.144-.336v-.1h-.144a.787.787,0,0,1-.1.337m-2.644,2.115h.1v-.193h-.1Zm0-.289h.1v-.193h-.1Zm0-.288h.1v-.481h-.1ZM68.6,52.125l.481-.1q.673.192.673.384v.1a78.053,78.053,0,0,1-3.316,8.6,90.511,90.511,0,0,1-3.941,9.9A129.894,129.894,0,0,1,69.082,85.53a11.222,11.222,0,0,0,1.49,3.46v.193q0,.385-2.067.481h-.288a.977.977,0,0,1-1.01-.577l.1-.192a10.224,10.224,0,0,1-1.057-2.259q-4.038-7.883-4.038-8.651a7.359,7.359,0,0,1-.961-2.067,9.857,9.857,0,0,0-1.2-2.162v.624a5.119,5.119,0,0,1-.1.865.085.085,0,0,0,.1.1,8.181,8.181,0,0,1-.192,1.394.681.681,0,0,1,.1.384V77.7a.085.085,0,0,1-.1.1l.1.193v.48a.085.085,0,0,1-.1.1l.1.193V78.9a.085.085,0,0,1-.1.1l.1.193q.095,1.73.1,2.836a.582.582,0,0,0,.144.288c0,.064-.048.1-.144.1l.144.481v4.9q0,1.587-.336,1.875l-.481-.1a1.881,1.881,0,0,0-.577.193l-.1-.193-1.682.288h-.1a.17.17,0,0,1-.193-.192v-.1q0-.192.288-.192-.1-1.346-.1-1.971v-.192Q56.68,76.2,56.441,76.205h.1l-.1-.193q0-.673.1-2.643-.1-1.442-.1-1.971l.1-.192-.1-.577V69.284a.946.946,0,0,1,.1-.433.679.679,0,0,1-.1-.384h.1a.085.085,0,0,0-.1-.1l.1-.481v-.384q0-1.058.1-3.124h.1a.085.085,0,0,0-.1-.1l.1-1.2v-.577a.085.085,0,0,1,.1-.1l-.1-.193v-1.2a15.717,15.717,0,0,1,.193-3.221.085.085,0,0,0-.1-.1l.1-.481V53.567l-.1-1.154.288-.192h1.01a5.741,5.741,0,0,0,.769.192.747.747,0,0,0,.288-.1q1.01.047,1.01.865v1.682a.846.846,0,0,0,.1.384.68.68,0,0,0-.1.385v.1c0,.193.032.289.1.289l-.1.481v.913a5.38,5.38,0,0,1-.144,1.058c0,.064.048.1.144.1l-.144.48v1.683c0,.192-.032.288-.1.288l.1.481v.433q0,1.97-.1,5.959v.1h.1A31.97,31.97,0,0,0,62.5,61.931a13.321,13.321,0,0,0,1.393-3.461,30.7,30.7,0,0,0,1.875-4.71l.865-1.153v-.1H66.15v-.192q0-.144.288-.289,1.49.1,2.163.1" transform="translate(-20.375 -36.879)"/>
        <path id="Pfad_2" data-name="Pfad 2" d="M97.133,58.15h.1v-.288h-.1Zm0-.576h.1a11.6,11.6,0,0,1,.1-1.3h-.193Zm0-1.442h.1v-.288h-.1Zm-.1-2.787q.1,1.1.1,2.019v.288c.128,0,.193-.1.193-.288a.731.731,0,0,1-.1-.288h.1l-.1-.241v-.192q0-.481-.1-1.49h-.1Zm-.288,22.59h.1v-.577h-.1Zm.384-14.371q0,1.106-.384,10.286V74.54h.193q.191-3.317.192-4.9,0-.432-.1-2.163l.1-.24a.085.085,0,0,0-.1-.1l.1-.673v-1.3a.085.085,0,0,1,.1-.1l-.1-.24V63.774c0-.1.032-.144.1-.144a.085.085,0,0,0-.1-.1l.1-.673V61.755l.1-.193-.193-.1Zm.481-8.7a11.278,11.278,0,0,1,.24,2.307q0,1.827-.1,3.893.1,1.826.1,2.692a32.02,32.02,0,0,1-.24,3.8c0,.064.048.1.144.1l-.144.481V72.04a.085.085,0,0,1-.1.1.085.085,0,0,0,.1.1q-.193,1.586-.577,11.295a.085.085,0,0,0,.1.1l-.1.529v4.806q.289,0,.289.193a9.755,9.755,0,0,1-2.98,1.394.734.734,0,0,0-.289-.1v-.193a.17.17,0,0,1,.193-.192l.192.1.1-.192q-.913,0-1.009-2.307l.1-1.2q-.1-3.413-.1-6.2v-.1l-.1-.721h.1l-.1-.193v-.288a.085.085,0,0,1,.1-.1l-.1-.24V76.463a.955.955,0,0,0-.1-.433.743.743,0,0,0,.1-.288c0-.129-.032-.193-.1-.193l.1-.721V72.473l-.1-.528h.1a.085.085,0,0,0-.1-.1l.1-.721v-.289l-.1-.576.1-.193a.765.765,0,0,1-.1-.336h.1a.085.085,0,0,0-.1-.1,30.893,30.893,0,0,0,.288-3.6V64.639a.852.852,0,0,0-.1-.384.856.856,0,0,0,.1-.384V62.86a.684.684,0,0,0-.1-.384,1.1,1.1,0,0,0,.1-.336c0-.032-.032-.224-.1-.577l.1-.624a.741.741,0,0,1-.1-.289.735.735,0,0,0,.1-.288.736.736,0,0,1-.1-.288.085.085,0,0,1,.1-.1l-.1-.721v-.384c0-.225.032-.336.1-.336l-.1-.577a14.292,14.292,0,0,1,.1-1.827,15.071,15.071,0,0,1-.1-1.97.733.733,0,0,0-.1-.288q.288-1.106.913-1.106l-.193-.288c0-.161.064-.241.193-.241q3.268,0,3.268.625" transform="translate(-31.895 -36.944)"/>
        <path id="Pfad_3" data-name="Pfad 3" d="M124.22,70.966h.433v-.1h-.433Zm-2.98-16.582v5.287a27.053,27.053,0,0,0,.192,3.893.74.74,0,0,0-.1.288c0,.1.032.144.1.144l-.1.673v3.413l.193-.1a.085.085,0,0,1,.1.1.735.735,0,0,0,.288-.1l.721.1.913-.1a.739.739,0,0,0,.288.1q2.98-.625,2.98-1.3.578,0,.817-2.21v-.481a.085.085,0,0,1,.1-.1l-.1-.24q0-.721.1-2.259,0-.193-.1-1.442a12.085,12.085,0,0,0,.1-1.393l-.1-.193a.085.085,0,0,1,.1-.1q0-2.883-1.394-3.7A3.6,3.6,0,0,0,124.22,54h-.1a6.386,6.386,0,0,0-2.5.481.679.679,0,0,0-.384-.1m-.193,18.6-.1.576a1.191,1.191,0,0,1,.1.529.846.846,0,0,1-.1.384l.1.193-.1.192a.085.085,0,0,0,.1.1l-.1.529v.769q0,.336.1.336l-.1.481v2.6a1.768,1.768,0,0,1-.1.817,8.125,8.125,0,0,1,.1,1.105v5.095a8.327,8.327,0,0,1,1.971.289h.1q3.461,0,4.23-1.01.482-.577.77-4.182.1-.963.1-2.115-.239-5.576-.673-5.576v-.24q.1-.289.192-.289,0-1.2-2.979-2.21a4.1,4.1,0,0,1-1.442-.193.48.48,0,0,1-.577,0l-1.586.193Zm2.163-21.629a2.17,2.17,0,0,0,.433-.1q3.557.577,4.182,1.106a6.565,6.565,0,0,1,2.884,3.6A19.528,19.528,0,0,0,131.045,59v.769q0,6.824-.913,6.825a9.2,9.2,0,0,1-2.4,2.884,7.654,7.654,0,0,1,2.98,3.7,32.986,32.986,0,0,1,.625,7.113v.1a5.12,5.12,0,0,0,.1.865.964.964,0,0,0-.1.433l.1.193q-.577,4.9-1.3,4.9-1.682,2.787-7.594,2.787h-.1a.085.085,0,0,1-.1-.1.085.085,0,0,0-.1.1l-.913-.1a5.219,5.219,0,0,0-.913.1q-2.5-.192-2.5-.384l.288-.192a.768.768,0,0,0-.1-.337q.1-1.779.1-2.884v-.384l-.288-1.009v-2.4q0-.817.1-1.922a.739.739,0,0,1-.1-.288.085.085,0,0,1,.1-.1l-.1-.673V72.648a.084.084,0,0,1,.1-.1l-.1-.193v-1.2a5.041,5.041,0,0,1,.1-.865l-.1-.24.1-.193q-.288-2.787-.288-4.566a.765.765,0,0,0-.1-.336,61.355,61.355,0,0,0,.384-6.681l-.1-.193q.1-.866.433-6.008a.582.582,0,0,1-.144-.288l.433-.193a.085.085,0,0,1,.1.1l.481-.1h1.394l.529-.1a.17.17,0,0,0,.192.192q0-.144.289-.336c.064,0,.1.048.1.144l1.3-.241Z" transform="translate(-39.482 -36.638)"/>
        <path id="Pfad_4" data-name="Pfad 4" d="M155.241,64.478h.1v-.192h-.1Zm.1,24.7a.731.731,0,0,0-.288-.1V86.011a.854.854,0,0,1,.1-.385.735.735,0,0,1-.1-.288h.1l-.1-.192V84.76a.084.084,0,0,1,.1-.1l-.1-.193V84.28l.1-.193h-.1l.1-.192a.778.778,0,0,1-.1-.337.735.735,0,0,0,.1-.288h-.1l.1-.192v-1.25l-.1-.624.1-.193a.735.735,0,0,1-.1-.288h.1l-.1-.192v-1.25l-.1-.529h.1l-.1-.193a.085.085,0,0,1,.1-.1l-.1-.673v-.769a18.5,18.5,0,0,0-.193-3.557.085.085,0,0,1,.1-.1q-.192-1.923-.192-4.519l-.1-.384a.739.739,0,0,0,.1-.288c0-.129-.032-.193-.1-.193l.1-.961V64.574a.084.084,0,0,1,.1-.1l-.1-.193q0-.432.1-.433l-.1-.673v-.961a.085.085,0,0,1,.1-.1l-.1-.192a5.773,5.773,0,0,0,.1-.817l-.1-.193.1-.192a.854.854,0,0,0-.1-.385,7.952,7.952,0,0,0,.1-1.057V58.47a.853.853,0,0,1,.1-.384.085.085,0,0,0-.1-.1,22.906,22.906,0,0,0,.289-4.326v-.481l-.193-.288v-.1a1.169,1.169,0,0,1,1.2-.673.17.17,0,0,0,.193.193l.192-.1a.17.17,0,0,0,.193.192h.1a.085.085,0,0,0,.1-.1l.192.1q5.287-.1,7.93-.1a.728.728,0,0,1,.288-.1v.1l.529-.289q.385.1.384.865V54.24q-.385.624-.48.624c0-.128-.113-.192-.337-.192q-5.287.192-6.248.192h-1.105q.192,3.268.192,3.413l-.1,1.01a.085.085,0,0,0,.1.1l-.1.481q.095,2.883.1,4.9v.384a.085.085,0,0,1-.1.1.085.085,0,0,0,.1.1l-.1.48v1.3l-.1.577a.085.085,0,0,0,.1.1l-.1.481v.384a9.233,9.233,0,0,1,1.393.1,13.761,13.761,0,0,1,1.682-.192q1.634.1,2.547.1a.085.085,0,0,1,.1-.1,1.158,1.158,0,0,1,.288.624h-.1l.1.193v1.442q0,.143-.384.384h-.1q-.193,0-.193-.289-2.836.192-4.614.193l-.384.1q-.144,1.97-.144,2.98V77.7a.689.689,0,0,1-.1.384.085.085,0,0,0,.1.1l-.1.721V85.53q0,.48.1,1.49l1.2.1h.481a.085.085,0,0,1,.1.1,18.178,18.178,0,0,1,2.547-.289,5.22,5.22,0,0,0,.913.1h1.73a.17.17,0,0,1,.192.193V87.4a.085.085,0,0,1-.1.1l.1.193v.576a.946.946,0,0,1-.1.433,2.225,2.225,0,0,1,.193.769l-.193.1h-.576q-.385,0-.384-.1a4.673,4.673,0,0,0-.577.1q-2.115,0-7.546.288h-.817a.17.17,0,0,1-.193-.192v-.288c.1,0,.176-.08.241-.241Z" transform="translate(-51.015 -36.879)"/>
        <path id="Pfad_5" data-name="Pfad 5" d="M197.655,53.117h.193v-.1h-.193Zm-.624-.193h.144v-.193h-.144Zm-.77-.192.481.1q0-.241-.481-.289Zm-.1,0V52.54h-.24a.228.228,0,0,0,.24.193m-1.105-.193a2.794,2.794,0,0,1,.673.1c0-.129-.1-.192-.288-.192h-.384Zm-3.653,18.313h.721v-.1a1.273,1.273,0,0,1-.721-.193Zm-.193-16.1v.1l.1.192h-.1l.193.721a.736.736,0,0,0-.1.288l.1.721h-.1a.738.738,0,0,1,.1.289.085.085,0,0,1-.1.1l.1.481v2.115q0,.336.1.336l-.1.481v9.565h1.2a.085.085,0,0,1,.1.1l.24-.1.384.1a.085.085,0,0,0,.1-.1l.529.1h.865a5.822,5.822,0,0,0,3.364-1.586q.961-.817.961-4.037a.664.664,0,0,0,.144-.481.7.7,0,0,1-.144-.433h.144c0-.065-.048-.1-.144-.1a28.039,28.039,0,0,0,.336-2.932q-.674-4.423-1.73-4.422,0-1.106-4.422-1.826-1.345.144-2.019.144Zm-2.307,21.533h.1v-.625h-.1Zm-.1-1.73h.1v-.288h-.1Zm0-.384h.1v-.193h-.1Zm-.1-.529h.1v-.961h-.1Zm-.24-4.9v1.49q0,.721.144,2.211h.1a.736.736,0,0,1,.1-.288,8.151,8.151,0,0,1-.1-1.106v-.1a.085.085,0,0,1,.1-.1.742.742,0,0,1-.1-.289l.1-1.442a5.227,5.227,0,0,1-.1-.913h-.1Zm4.47-16.919q6.778,0,8.027,2.6,1.393,1.153,1.393,7.258v2.739a10.013,10.013,0,0,1-3.22,7.93,6.006,6.006,0,0,1-1.586.913l2.4,8.171a.1.1,0,1,1,0,.192l2.547,7.835v.433c0,.128-.08.192-.24.192h-.1l-.289-.192q0,.143-.384.288l-.528-.1a.085.085,0,0,0-.1.1l-.481-.1h-.817v.1l.1.721-.193.1q-.24,0-1.442-4.037-3.51-13.122-3.51-13.506h-.288a.946.946,0,0,0-.433.1.728.728,0,0,0-.288-.1.085.085,0,0,0-.1.1,9.564,9.564,0,0,1-1.49-.289v.1q0,.817.1,1.922l-.1.193.1.192-.1.241.1.577v.1a.085.085,0,0,1-.1.1.766.766,0,0,1,.1.336,9.11,9.11,0,0,1-.1,1.3q.1.961.1,2.115v.193a.085.085,0,0,1-.1.1l.1.193v1.634a.085.085,0,0,1-.1.1l.1.192a26.473,26.473,0,0,1-.192,2.932.685.685,0,0,1,.1.385h-.1a.084.084,0,0,0,.1.1l-.1.721v.913q0,.481.1,1.49a7.881,7.881,0,0,1-1.826.624v-.1l-.193.1h-.192a.977.977,0,0,1-1.106-1.105V86.57q0-.962.1-2.356l-.24-1.49a.645.645,0,0,0,.144-.384l-.144-.625a.522.522,0,0,1,.144-.384q-.239-6.393-.528-8.892a.085.085,0,0,1,.1-.1,9.8,9.8,0,0,1-.192-1.922c0-.065.032-.384.1-.961,0-.1-.032-.144-.1-.144l.1-.48v-1.3a5.22,5.22,0,0,0-.1-.913.085.085,0,0,1,.1-.1l-.1-.529V64.7q0-.577.1-1.586c0-.1-.032-.144-.1-.144l.1-.481V61.384a7.566,7.566,0,0,1,.192-1.49c0-.161-.032-.241-.1-.241l.1-1.009V56.866a5.665,5.665,0,0,1,.1-1.01,3.807,3.807,0,0,1-.1-.913v-.384a.951.951,0,0,1,.1-.433.687.687,0,0,1-.1-.385v-.624q0-1.2,1.922-1.2l.193.1a10.451,10.451,0,0,1,2.211-.193Z" transform="translate(-61.452 -36.813)"/>
        <path id="Pfad_6" data-name="Pfad 6" d="M233.886,56.2q-.72,2.739-1.97,12.352a68.544,68.544,0,0,0-1.2,7.835v.288h.1a2.987,2.987,0,0,0,.721-.1q1.2.1,1.346.1,2.692-.1,3.749-.1v-.1a47.616,47.616,0,0,0-.577-5.768h.1q-.528-2.883-1.105-8.844h.1q-.624-6.056-1.057-6.056h-.1l-.192.1a.734.734,0,0,1,.1.289m3.99,4.9q3.076,19.37,3.076,22.062.288,1.73.673,6.873c-.1.257-.192.384-.288.384a12.708,12.708,0,0,0-1.875-.192h-.192a2.222,2.222,0,0,0-1.01-.288v-.1q0-.144.336-.289-1.009-6.3-1.3-10.43l-4.518.433h-2.644q-.673,4.182-1.25,8.7-.432,1.777-.721,1.778l-.288-.576-.481.1q-1.2-.1-1.3-.1l-.481.288-.673-.288q.432,0,1.057-4.9,1.779-10.142,2.788-14.9.865-4.759,1.634-11.007.1-.337.913-5.383h.289v-.1q-.481,0-.481-.288a4.053,4.053,0,0,1,2.115-.913,4.154,4.154,0,0,1,1.394-.193q1.2.1,1.393.1a1.032,1.032,0,0,1,.577-.193q.77,4.038,1.25,9.421" transform="translate(-72.991 -36.769)"/>
        <path id="Pfad_7" data-name="Pfad 7" d="M61.23,198.818h.084v-.168H61.23Zm.252,12.437a.074.074,0,0,0,.084.084l-.5,4.285H61.4q.294,0,1.891.252h.336a.074.074,0,0,1,.085.084.074.074,0,0,0,.084-.084l.462.084h1.428q-1.092-8.949-1.891-18.15H63.71q-.168,1.723-2.227,13.445m.63-16.554a.742.742,0,0,0-.084.336.074.074,0,0,1,.084.084.637.637,0,0,1,.252-.084,24.056,24.056,0,0,1,3.067.378c.028-.14.084-.21.169-.21h.168q.63.21.63,2.437.379,2.059.757,8.992v.42c.028.112.084.168.168.168l-.084.336q.042.966.169.966a.075.075,0,0,1-.085.084l.252,1.975h-.084q1.218,6.723,1.554,9.412l.924,5.84c-.056.169-.112.252-.168.252q.168,1.638.336,1.638.294,0,.294.168v.168q0,.126-.294.252h-.084a4.339,4.339,0,0,0-1.6.252v-.084l-.169.084q-.8,0-.8-1.554l-1.093-8.4-.462.084h-.42a13.775,13.775,0,0,1-1.428-.169q-2.6.085-3.025.085a1.065,1.065,0,0,0-.5-.168q0,.21-.673,4.2l.084.168q-.63,4.916-1.05,4.915a.846.846,0,0,0-.5.252.074.074,0,0,1-.084-.084l-.168.084a.075.075,0,0,1-.085-.084l-.42.084h-.8l-.252.168a.148.148,0,0,1-.168-.168q.672-3.782.756-3.95l-.084-.168.169-.252v-.084a3.866,3.866,0,0,1,.168-1.387.074.074,0,0,0-.084-.084l.084-.42v-.8c0-.056.042-.084.126-.084,0-.056-.042-.084-.126-.084a51.236,51.236,0,0,0,.715-6.6,45.424,45.424,0,0,0,1.092-6.6,30.522,30.522,0,0,0,.966-4.79q.924-5.714.924-6.764,0-.168.42-.168v-.084q-.336,0-.336-.252a4.22,4.22,0,0,0,.715-.882c.111.027.168.084.168.168" transform="translate(-20.375 -81.375)"/>
        <path id="Pfad_8" data-name="Pfad 8" d="M87.385,216.789h.084v-.966h-.084Zm0-2.059h.084v-.168h-.084Zm0-1.387h.084v-.168h-.084Zm0-.252h.084v-.252h-.084Zm0-.673h.084v-.294h-.084Zm0-1.05h.084V211.2h-.084Zm-.084,3.949a.792.792,0,0,1,.084.42h.084v-.924h-.084q0,.5-.084.5m.168-3.613v-.169c-.112.028-.168.084-.168.169Zm-2.143,10.126.085.336h.084v-.252l-.084-.336h-.085Zm10.966-25.293a7.57,7.57,0,0,1,1.05,3.781v1.3l-.084.588a.149.149,0,0,1,.168.168q0,.126-.5.5H96.8q-.21,0-.252-.336l-.589.084H94.863l-.21-.084.127-.42v-.8a6.626,6.626,0,0,0-.966-3.571,2.188,2.188,0,0,0-2.143-.966,3.8,3.8,0,0,0-2.647,1.554q-.8.924-1.218,4.873l-.085.169.169,3.865a11.137,11.137,0,0,0-.084,1.135q.084.84.084,1.26a.637.637,0,0,0-.084.252l.084.21-.084.757q.084,1.47.084,1.723a4.431,4.431,0,0,1-.084.756,11.239,11.239,0,0,1,.084,1.387l-.084,1.345a.074.074,0,0,0,.084.084l-.084.462v3.235a.594.594,0,0,1-.085.336.075.075,0,0,0,.085.084l-.085.42q.085,1.092.085,1.135l-.085.336q0,2.815,1.891,3.781a3.5,3.5,0,0,0,1.218.252h.252q2.6,0,3.151-2.058.252-2.1.252-2.479,0-.126-.168-1.218H94.4l-.084-.169v-.168q0-.168,1.05-.252a.716.716,0,0,0,.673,0l.168.084.168-.084a.451.451,0,0,1,.336.5v1.891a3.875,3.875,0,0,1-.168,1.386h.084q-.547,3.152-1.345,3.151a4.39,4.39,0,0,1-2.857,1.3q0,.168-.84.168a6.877,6.877,0,0,1-.924-.084l-.546.084q-3.067-.629-3.067-1.134-1.975-1.218-1.975-5.546V220.7a.074.074,0,0,1,.084-.084.074.074,0,0,0-.084-.084,10.584,10.584,0,0,1,.252-1.681.838.838,0,0,1-.084-.378c0-.168.028-.252.084-.252l-.084-.42q0-1.6-.084-7.437a.455.455,0,0,1,.084-.252l-.084-.546v-1.975a.75.75,0,0,1,.084-.336.074.074,0,0,0-.084-.084l.084-.42-.084-1.219a4.285,4.285,0,0,1,.084-.672,4.438,4.438,0,0,1-.084-.757q.042-1.3.168-1.3l-.084-.168v-.588a.074.074,0,0,1,.084-.084l-.084-.168a12.435,12.435,0,0,1,1.219-5q1.261-2.479,5.462-2.479a.647.647,0,0,1,.252-.084,8.368,8.368,0,0,1,4.118,2.311" transform="translate(-29.315 -81.28)"/>
        <path id="Pfad_9" data-name="Pfad 9" d="M122.419,213.852a.51.51,0,0,1,.126.252c-.084,0-.126.028-.126.084l.21.084v-.42c0-.112-.069-.168-.21-.168Zm-.084-.5a.649.649,0,0,1,.084.252h.126v-.169a.508.508,0,0,1-.126-.252h-.084Zm0-.252h.084v-.168h-.084Zm-.252-1.891h.084v-.252h-.084Zm-.084-.5h.168a.653.653,0,0,1-.084-.252H122Zm-.084-.8H122v-.336h-.084Zm-4.37-11.638a.643.643,0,0,1,.085.252h-.085a.641.641,0,0,1,.085.252,58.463,58.463,0,0,1-1.177,7.563q-1.05,8.445-1.3,9.831c0,.056-.084.084-.252.084v.169a9.526,9.526,0,0,1,1.806-.252,2.486,2.486,0,0,1,.589.084q.967-.084,1.723-.084h1.092c0-.224.056-.336.168-.336l-.42-4.37h.084l-.084-.168a67.378,67.378,0,0,0-.84-8.571l.084-.168a.637.637,0,0,1-.084-.252h.084a4.359,4.359,0,0,1-.169-.882h.085l-.085-.168a23.154,23.154,0,0,0-.252-2.983l-.336.084a5.729,5.729,0,0,1-.8-.168Zm1.723-2.647h.757l.252-.168q.421,0,1.219,8.025l1.638,12.184a89.891,89.891,0,0,0,1.639,12.184l-.21.085a14.571,14.571,0,0,1-2.142-.252.148.148,0,0,1-.168.168h-.085a37.206,37.206,0,0,1-1.092-5.588,11.678,11.678,0,0,1-.084-1.26v-.462l-.084-.42h.084a11.455,11.455,0,0,1-.336-1.555,6.687,6.687,0,0,0-1.554.378.074.074,0,0,1-.084-.084l-.589.084q-3.613,0-3.613.336l-1.471,8.067a.149.149,0,0,0-.168.168v.5l-.42.084h-.5a.074.074,0,0,1-.084-.084q-.841.126-1.387.252a.639.639,0,0,1-.084-.252,1.287,1.287,0,0,1,.168-.5.149.149,0,0,1-.168-.168q.041-1.134.252-1.134l-.084-.168v-.168a.074.074,0,0,1,.084-.084l-.084-.168a30.348,30.348,0,0,0,.588-4.79,25.441,25.441,0,0,0,.966-5.252v-.084a.149.149,0,0,1,.169-.168.075.075,0,0,0-.085-.084q.127-1.975.336-2.058a.074.074,0,0,0-.084-.084,3.083,3.083,0,0,1,.168-.757l-.084-.21q.168-.3,1.3-6.219.379-2.058.588-2.058l-.084-.462v-.168l.42-1.807-.084-.168a.074.074,0,0,1,.084-.084l-.084-.168a31.678,31.678,0,0,0,.756-5.21,1.826,1.826,0,0,1,1.051-.336,13.663,13.663,0,0,0,2.479.168" transform="translate(-37.316 -81.662)"/>
        <path id="Pfad_10" data-name="Pfad 10" d="M143.447,197.466q-.168,2.143-.294,6.512h-.084l.084.168v2.143a.074.074,0,0,1-.084.084l.084.168v.084a.075.075,0,0,1-.084.085.074.074,0,0,0,.084.084q-.084,2.185-.084,3.151v1.471a.074.074,0,0,1-.084.084.421.421,0,0,1,0,.5l.084.462a.074.074,0,0,1-.084.084c0,.112.028.169.084.169q-.084,2.016-.084,2.983v2.058l.294,6.933-.127.168.127.168-.127.546h.127q.5,0,2.016.084,2.6-.378,3.277-1.218a4.173,4.173,0,0,0,1.47-2.983c0-.224.028-.336.084-.336a.074.074,0,0,0-.084-.085c0-.2.028-.294.084-.294q-.084-1.261-.084-1.849v-.966q0-1.807-.084-5.546h.084l-.084-.21V208.6a2.954,2.954,0,0,0-.084-.715,2.463,2.463,0,0,0,.084-.672v-2.647a.6.6,0,0,1,.084-.336.75.75,0,0,1-.084-.336V202.76q-.294-3.949-1.05-3.95a2.613,2.613,0,0,0-2.479-1.638q0-.126-1.47-.168a2.859,2.859,0,0,0-1.6.252Zm-2.605,28.36a.149.149,0,0,0,.168-.169h-.168Zm0-1.219h.084v-.588h-.084Zm0-.672h.084q0-.841.085-.84l-.168-.126Zm0-1.47h.084V222.3h-.084Zm-.252-11.723h.084v-.168h-.084Zm0,5.126a.074.074,0,0,1-.085.084l.085.169v.252a.075.075,0,0,1-.085.085l.085.21a.075.075,0,0,1-.085.084l.085.42v.84l.084.5a.671.671,0,0,0-.084.294.453.453,0,0,1,.084.252.074.074,0,0,1-.084.084l.252,2.4h.084v-.085q-.084-.882-.084-1.387v-.5a.593.593,0,0,0-.084-.336l.084-.168q-.168-2.437-.168-4.034l.084-.168a.65.65,0,0,1-.084-.252.075.075,0,0,1,.084-.085,4.423,4.423,0,0,1-.084-1.05h-.084Zm-.085-7.184h.084v-.252h-.084Zm2.059-13.823q1.008-.084,1.47-.084h.924a9.079,9.079,0,0,1,6.008,1.891q1.135,1.218,1.723,5.84v1.3a.75.75,0,0,0,.084.336.074.074,0,0,1-.084.084l.084.42v4.37a.6.6,0,0,0,.084.336.75.75,0,0,0-.084.336q0,1.849-.084,4.285.084,1.68.084,2.143-.336,4.79-.336,6.176-.714,3.277-1.891,4.034a12.53,12.53,0,0,1-4.79,1.975c-.168,0-.252.028-.252.084q-.882-.084-1.3-.084h-1.3q-.547,0-1.681.084-.378-.294-.378-1.3v-.252l-.42-.42v-.336a.074.074,0,0,1,.084-.084l-.084-.168v-.42a.074.074,0,0,1,.084-.084l-.084-.21a.074.074,0,0,1,.084-.084l-.084-.168V223.6l-.084-.42h.084a.074.074,0,0,0-.084-.084l.084-.462v-.588q-.252-2.353-.336-5.757.084-1.134.084-1.68l-.084-.21a.6.6,0,0,0,.084-.336c0-.027-.028-.2-.084-.5a.65.65,0,0,0,.084-.252l-.084-.168c0-.112.028-.168.084-.168L140,208.6a.645.645,0,0,0,.085-.252,5.018,5.018,0,0,1-.085-.714,36.326,36.326,0,0,1,.42-3.655.074.074,0,0,0-.084-.085q.42-6.343.42-8.234l-.084-.42a3.019,3.019,0,0,1,1.807-.462.074.074,0,0,1,.084.084" transform="translate(-46.466 -81.452)"/>
        <path id="Pfad_11" data-name="Pfad 11" d="M173.614,195.411q.63,0,2.521.084a.751.751,0,0,1,.336-.084v.084l.168-.084h.085q1.512,0,1.512.966v.84q0,.126-.294.252h-.924a9.556,9.556,0,0,1-.966-.168h-4.327q-.715,0-.715.63-.252,3.235-.252,6.555v.546a5.189,5.189,0,0,0,.084,1.008,5.875,5.875,0,0,0-.084,1.05v2.269c.027.112.084.168.168.168a4.259,4.259,0,0,0,.715-.084l.42.084a4.958,4.958,0,0,1,.882-.084h.085a.714.714,0,0,0,.672,0h.546q0-.252.169-.252h.42c.42,0,.63.056.63.168l.168-.084q1.009,0,1.008.924v.966q0,.588-2.479.588a.148.148,0,0,0-.168-.168,17.764,17.764,0,0,0-2.857.252q.084,1.092.084,1.3-.085,1.681-.21,1.681c0,.056.042.084.127.084l-.127.42v.084q0,1.471-.084,3.361a4.982,4.982,0,0,1,.084.715.074.074,0,0,1-.084.084.649.649,0,0,0,.084.252q.126,2.184.127,2.941,0,.462-.294,2.689,2.226-.168,3.572-.168l.168-.084q.21.042,1.386.169a2.747,2.747,0,0,1,.672-.085,1.17,1.17,0,0,1,1.135.673v1.765q0,.168-.924.252c-.42-.056-.63-.112-.63-.168l-.168.084h-.084q-.714,0-1.639.084a.074.074,0,0,1-.084-.084l-.462.084h-.756q-1.513,0-4.5.252-.967-.085-.966-.252,0-.336.5-.336v-1.3c0-.2-.028-.294-.084-.294a.641.641,0,0,1,.084-.252q.084-5.63.084-8.739l.084-1.051a.647.647,0,0,1-.084-.252h.084l-.084-.168q.21-2.185.21-3.53v-.294a.737.737,0,0,1,.084-.336.075.075,0,0,0-.084-.085l.084-.588v-2.857a.074.074,0,0,1,.084-.084.074.074,0,0,0-.084-.084l.084-.462v-.5a3.341,3.341,0,0,0-.084-.8q.084-.588.252-5.8a.074.074,0,0,0-.084-.084l.084-.42v-3.907c0-.084.112-.169.336-.252a.6.6,0,0,1,.336.084,12.485,12.485,0,0,0,1.387-.168l.168.084a.838.838,0,0,1,.378-.084v.084l.168-.084h1.135a.941.941,0,0,0,.42-.084,2.48,2.48,0,0,0,.588.084" transform="translate(-55.073 -81.623)"/>
        <path id="Pfad_12" data-name="Pfad 12" d="M205.168,206.221h.084v-.252h-.084Zm-.168.5h.084v-.168H205Zm.168-.252V206.3H205c.028.112.084.169.168.169m-.757,2.563h.168v-.168h-.168Zm-1.47,7.1h.084v-.168h-.084Zm.168-1.176a1.447,1.447,0,0,1-.168.84l.168.084q1.47-6.47,1.47-6.68l-.168-.085q0,.379-1.3,5.84m-.757,3.572h.084V218.2h-.084Zm-1.47-.42h.084v-.168h-.084Zm-.084-.252h.084v-.168H200.8Zm-.168-.588a.643.643,0,0,1,.085.252h.084v-.084l-.084-.5h-.085Zm-.168-.966.084.546h.084v-.336a.68.68,0,0,1-.084-.294h-.084Zm-5.672-2.479q0,.21.084.967h.084q0-.8.084-.8l-.084-.168v-.672a.074.074,0,0,1,.084-.084.649.649,0,0,1-.084-.252v-1.134h-.084q-.085,1.429-.084,2.142m6.6,14.159a4.983,4.983,0,0,1-.672-.168v-.169a2.88,2.88,0,0,1,.461-.042l-.126-.126q-.209,0-.924-3.361-1.3-3.991-2.311-8.319-.714-1.723-2.6-11.723h-.085v.085a.075.075,0,0,0,.085.084l-.085.42V205q0,.421.085,1.3h-.085a.641.641,0,0,1,.085.252q0,.588.084,2.479h-.084a.074.074,0,0,0,.084.084q.084,3.109.084,4.706v2.059a.074.074,0,0,1-.084.084.074.074,0,0,0,.084.084l-.084.631q0,1.26-.084,6.6l-.085.336a.075.075,0,0,0,.085.084q-.042.672-.169.672l.084.169V227.9q0,.126-.336.336a1.685,1.685,0,0,0-1.47-.589l-.169.084q-.672-.209-.672-.42a1.039,1.039,0,0,1,.084-.462l-.084-.589q.252-2.563.252-3.865a.649.649,0,0,1-.084-.252h.084l-.084-.168a.647.647,0,0,1,.084-.252l-.084-.5v-.084a1.053,1.053,0,0,1,.084-.462q-.084-1.134-.252-2.311a.074.074,0,0,1,.084-.084q-.085-1.008-.168-1.008l.084-.336q-.085-3.74-.168-4.285a.074.074,0,0,1,.085-.084l-.085-.462v-.252a.742.742,0,0,1,.085-.336.639.639,0,0,1-.085-.252h.085a.641.641,0,0,1-.085-.252q0-.42.085-3.193a.452.452,0,0,1-.085-.252h.085a.075.075,0,0,0-.085-.084q.085-1.261.085-1.891v-2.815a.741.741,0,0,1,.084-.336.074.074,0,0,0-.084-.084c0-.112.027-.169.084-.169q-.085-.756-.084-.966.167-3.613.168-4.957v-.085a.6.6,0,0,1,.084-.336.751.751,0,0,1-.084-.336v-.336c.028-.14.084-.21.168-.21h.084l.252.21h.084l.546-.084a.075.075,0,0,1,.085.084l1.806-.21q.5.336.5.462v.084a.075.075,0,0,1-.085.084l2.9,13.025a91.984,91.984,0,0,1,2.731,10.462h.168q0-.379,1.05-4.622l1.723-7.563q1.387-5.21,1.6-5.21l-.084-.168q.042-.462.21-.462l-.127-.168q.127-.589.294-.589a.074.074,0,0,0-.084-.084,37.764,37.764,0,0,0,1.261-5.252h.42q.085,0,.085.126l.168-.126q.294.126.294.21a.074.074,0,0,0,.084-.084l.588.084h1.008l.882.084a.074.074,0,0,1,.084-.084l.084.168q0,1.47.085,3.823l-.085.462.168.672a.074.074,0,0,1-.084.084l.084.589v.42a.835.835,0,0,1-.084.378q.084.924.168.924l-.084.42q0,2.1.084,4.118-.084,3.991-.252,5.252a7.117,7.117,0,0,1,.085,1.092,2.455,2.455,0,0,1-.085.588l.085.462q-.168,5.21-.168,8.739a.649.649,0,0,0,.084.252.6.6,0,0,0-.084.336q0,3.194-.42,3.613-.42.588-.546.588h-1.428l-.336-.252.085-.169v-.714q0-1.723-.085-3.655a17.514,17.514,0,0,0,.169-2.479v-.294l.084-.5a.594.594,0,0,1-.084-.336h.084l-.084-.168v-.757a.074.074,0,0,1,.084-.084l-.084-.21v-.169a17.373,17.373,0,0,0-.169-2.142l.085-.336a.074.074,0,0,0-.085-.084l.085-.42v-1.219a4.362,4.362,0,0,1,.084-.756.641.641,0,0,1-.084-.252.649.649,0,0,0,.084-.252.635.635,0,0,1-.084-.252h.084l-.084-.168a.074.074,0,0,1,.084-.085q-.126-1.344-.169-1.554a.075.075,0,0,1,.085-.084q-.127-1.681-.168-1.807l.084-.168a9.263,9.263,0,0,0-.21-1.891,7.514,7.514,0,0,0,.126-1.387q0-.462-.126-2.142c.084,0,.126-.028.126-.084h-.21v.084q-.336,2.521-3.235,14.327a36.633,36.633,0,0,1-1.135,5.419q-.84,4.874-1.512,4.874l-.462-.252a.929.929,0,0,0-.294.043.368.368,0,0,1,.043.168l-.168-.126a.169.169,0,0,0-.084.168" transform="translate(-62.8 -81.509)"/>
        <path id="Pfad_13" data-name="Pfad 13" d="M231.825,195.842q.63,2.983,3.7,15.377.168.8.336.8l1.933-7.521q.8-3.4,2.521-8.908,0-.42.547-.42a14.128,14.128,0,0,1,1.722.252.649.649,0,0,1,.252-.084c0,.056.042.084.126.084q-3.614,12.185-3.613,13.193-.5,1.555-1.891,6.47-.294,0-.294,2.268v.085a5.1,5.1,0,0,0,.085.8.075.075,0,0,1-.085.085l.085.336q.084,4.454.21,5.252h-.126a.509.509,0,0,1,.126.252c0,.112-.042.168-.126.168l.126.631V226.6a.838.838,0,0,0,.084.378q0,.967-.462.966l-1.05.42h-1.47a.149.149,0,0,1-.169-.168.149.149,0,0,0,.169-.169,2.125,2.125,0,0,1-.252-1.218v-4.58l-.084-.42h.084l-.084-.168v-1.681l-.126-.84h.126a.73.73,0,0,1-.126-.294q0-.085.126-.085l-.126-.42v-2.1q-.336,0-.5-2.016l-.966-3.824c.056,0,.084-.042.084-.126q-.168,0-.42-1.554l-.8-2.605q0-.924-2.269-10.252l.084-.168a.75.75,0,0,1-.084-.336,1.308,1.308,0,0,1,.966-.378q1.639,0,1.639.882" transform="translate(-74.325 -81.509)"/>
        <path id="Pfad_14" data-name="Pfad 14" d="M59.167,113.711a1.151,1.151,0,0,1,.519.13.114.114,0,0,0,.129-.13l.649.13h1.492a35.5,35.5,0,0,1,3.959.454h.779a.23.23,0,0,1,.259.26v.129q0,1.169.13,3.634h-.13l.13.26v3.764a55.324,55.324,0,0,1-.26,6.619.115.115,0,0,0,.13.13,44.7,44.7,0,0,0-.389,4.607q1.168-.129,1.492-.129v.129l.259-.129H72.34l.324.129q0-1.1.13-1.1l-.13-.259v-1.752a.115.115,0,0,1,.13-.13l-.13-.259v-4.478a.114.114,0,0,1,.13-.129.115.115,0,0,0-.13-.13.992.992,0,0,1,.13-.389q.13-3.569.13-5.97v-2.791a1.288,1.288,0,0,0-.13-.584.922.922,0,0,0,.13-.519v-.129l-.13-.649a2.1,2.1,0,0,1,1.168-.584l6.619.714a8.11,8.11,0,0,1,1.752-.26q1.1,0,1.1,3.764v.649q0,2.206-.13,5.84l.13.649a5.308,5.308,0,0,0-.13,1.362l.13.259a1.216,1.216,0,0,0-.13.649,1.757,1.757,0,0,0,.13.844,10.942,10.942,0,0,0-.13,1.492v1.882a.927.927,0,0,1-.129.519.115.115,0,0,0,.129.13l-.129.714V134.8l.129,1.622h-.129l.129.26v1.233a1.153,1.153,0,0,0,.13.519.992.992,0,0,0-.13.389q.13,1.622.13,2.336h-.13l.13.259V144.8q.26,3.958.259,4.283v2.855a.114.114,0,0,1-.129.13.115.115,0,0,0,.129.13l-.389,4.607a17.367,17.367,0,0,1,.13,1.752l-.13,4.607a1,1,0,0,1,.13.389h-.13l.13.26v.13a1.3,1.3,0,0,1-.519,1.1h-.454q0-.584-.39-.585-.519.195-.519.455a.115.115,0,0,1-.13-.13l-2.336.389a.115.115,0,0,1-.13-.129q-2.466.194-2.66.259-.585-.13-.585-.259l-.259.129a1,1,0,0,0-.389-.129.115.115,0,0,0-.13.129l-.649-.129-.973.129-.779-.129v-1.752l.129-.844a1,1,0,0,1-.129-.389.988.988,0,0,0,.129-.389l-.129-.259.129-.325a6.852,6.852,0,0,1-.129-1.169v-.129a1.3,1.3,0,0,1,.129-.585,8.758,8.758,0,0,1-.324-1.752h.195l-.195-.26v-1.1l.195-.779a.786.786,0,0,1-.195-.389l.195-.26a.172.172,0,0,0-.195-.195.893.893,0,0,1,.195-.649q-.195-2.791-.195-4.608v-2.531q0-.973.195-2.985H72.34a2.216,2.216,0,0,1-1.038.519v-.129q0-.26.389-.26a.229.229,0,0,0-.259-.259h-1.1q-1.1,0-3.375.13-.065,1.752-.259,1.752l.129.26v1.1a.115.115,0,0,1-.129.13l.129.259q0,.584-.259,6.49.13.714.13.779c0,.13-.043.195-.13.195l.13.909v2.726a9.115,9.115,0,0,1-.13,1.622,21.818,21.818,0,0,0,.519,4.543,2.736,2.736,0,0,1-2.012,1.1h-.779a1.287,1.287,0,0,1-.584-.13.115.115,0,0,0-.13.13l-.649-.13H61.308a.115.115,0,0,1-.13-.13.115.115,0,0,0-.13.13q-4.607-.13-4.607-.649a1.3,1.3,0,0,0,.389-.714l-.389-.779a.115.115,0,0,1,.13-.13q0-.324-.13-.324.13-1.688.13-2.012,0-2.012-.13-3.763l.259-6.49q-.129-1.493-.129-3.5l-.13-.259.13-.26q-.13-3.309-.13-5.256v-.129a55.627,55.627,0,0,0,.389-7.074v-2.4a.923.923,0,0,0-.13-.519,1.283,1.283,0,0,0,.13-.584q0-.259-.13-.259a.992.992,0,0,1,.13-.389q-.13-2.467-.13-4.219l.13-.259a1,1,0,0,1-.13-.389h.13l-.13-.26v-.714a1.1,1.1,0,0,0,0-1.038l.13-.26a1.043,1.043,0,0,1-.13-.454l.13-.519a.992.992,0,0,0-.13-.389q.195-2.272.26-2.466a.115.115,0,0,0-.13-.13l.259-2.012a1,1,0,0,1-.129-.389h.129a.114.114,0,0,0-.129-.13l.129-.714v-.909q.649-.973,1.363-.973Z" transform="translate(-20.375 -56.139)"/>
        <path id="Pfad_15" data-name="Pfad 15" d="M186.3,124.331h-.13l.13.259v.195a.115.115,0,0,1-.13.13.114.114,0,0,0,.13.129l-.389,9.994,1.622-.13h.39a.115.115,0,0,1,.129.13q2.467,0,3.116-4.348l-.13-.974.13-2.142q0-3.5-2.142-4.737h-1.493q-1.363,0-1.362.974a1.149,1.149,0,0,1,.13.519m-7.593,39.975,3.245.779a7.965,7.965,0,0,1,1.752-.519v-.26l-.259.13a.115.115,0,0,1-.13-.13.115.115,0,0,0-.13.13,17.479,17.479,0,0,0-3.115-.259h-.519l-.259-.13v.13l-.259-.13h-.325Zm-.519-.129h.389v-.13a.992.992,0,0,1-.389-.13Zm-2.856-12.849q0,.259.195.259l-.195.974v.973a.306.306,0,0,0,.325.259l.13-1.362v-.649c0-.129.043-.195.129-.195a1.214,1.214,0,0,1-.129-.649h-.26a.789.789,0,0,1-.195.389m11.227-37.769.26-.13,2.6.389.259-.129q3.959.519,5,1.362a8.839,8.839,0,0,1,5.126,5q1.623,2.272,1.622,7.657v.13q-.13,4.088-.519,4.089l.13.259a29.125,29.125,0,0,1-1.752,8.371,13.712,13.712,0,0,1-4.348,3.5q-.454.519-3.893,1.232a8.722,8.722,0,0,1-3.959.649q-1.623-.13-1.752-.13v2.856l-.129.779a.114.114,0,0,0,.129.13l-.129.714q0,.454.129,2.272H185.2l.129.259v.714a1.159,1.159,0,0,1-.129.519l.129.259a1,1,0,0,1-.129.389c0,.173.043.26.129.26a64.147,64.147,0,0,0-.259,6.619v1.493a1.287,1.287,0,0,0,.13.584l-.13.259a.923.923,0,0,1,.13.519q0,.26-.779.649,0,.649-.843.973-.779-.065-.779-.259a.114.114,0,0,0-.129.129,34.145,34.145,0,0,1-4.219-1.1V164.7l-.259.129h-1.233a1.943,1.943,0,0,0-1.038-.389c0,.13-.129.26-.389.389q-.973,0-.973-8.111,0-.779.129-2.142l-.129-.909q.324-6.75.519-6.75l-.13-.324v-.39a.115.115,0,0,1,.13-.129.115.115,0,0,0-.13-.13q.13-.714.259-3.764a2.458,2.458,0,0,1-.259-.843l.13-.26a.115.115,0,0,0-.13-.13q.13-1.363.259-1.362l-.129-.26a.114.114,0,0,1,.129-.129.115.115,0,0,0-.129-.13,3.55,3.55,0,0,1,.259-.973l-.13-.26q.13-1.168.325-1.168l-.454-2.336h.129l-.129-.26a28.061,28.061,0,0,1,.259-3.374.115.115,0,0,0-.13-.13l.13-.649v-1.622a10.043,10.043,0,0,0-.259-2.855,45.981,45.981,0,0,0,.454-6.62l-.325-.973a16.473,16.473,0,0,0,.13-1.882v-.129l-.13-.779q.455-1.233,1.363-1.233a.115.115,0,0,0,.129.13q.065-.259.26-.259h.325l.259.129.13-.259c.173,0,.259.043.259.13q1.363-.13,2.012-.13h.26q2.337,0,5.256-.13a7.783,7.783,0,0,0,1.1.13" transform="translate(-57.255 -56.05)"/>
        <path id="Pfad_16" data-name="Pfad 16" d="M227.073,113.31a.115.115,0,0,0,.13.13c.043-.173.129-.26.259-.26l.259.13a.115.115,0,0,0,.13-.13,7.821,7.821,0,0,0,1.882.26q1.558,0,5-.26,3.245.26,4.089.26.26.519.389.519,0,.324-.13.324.13,1.818.13,2.661v3.245q0,3.114-.519,3.115l-.454-.259h-.39a1.213,1.213,0,0,0-.649.13,16.124,16.124,0,0,1-2.336-.26l-.649.13h-1.492a7.61,7.61,0,0,1-1.362-.13l-3.245.519.195,1.363a.8.8,0,0,1-.195.389l.195.259a23.546,23.546,0,0,0-.455,5.256v.584a.115.115,0,0,1-.13.13.115.115,0,0,0,.13.13q-.065,1.038-.259,1.039a1.283,1.283,0,0,1,.129.584q1.623-.13,2.336-.13h4.673l.974-.13a2.573,2.573,0,0,0,.389.779l-.13,1.362v.909q0,1.363-.13,4.089H235.7l.129.259v.13a.115.115,0,0,1-.129.13,5.208,5.208,0,0,0,.389,1.492v.259q-.519.844-.649.844h-.129q-.26,0-.585-.584a71.428,71.428,0,0,1-7.268.843,1.563,1.563,0,0,1-.13.779.114.114,0,0,0,.13.129l-.13,1.363v8.955l.13.909a.115.115,0,0,0-.13.13.115.115,0,0,1,.13.13.115.115,0,0,0,.13-.13l.714.13.649-.13.26.13.259-.13.26.13a1.041,1.041,0,0,1,.454-.13q.26,0,.26.13l.909-.13h1.233a12.425,12.425,0,0,1,1.882.13,7.61,7.61,0,0,1,1.362-.13q2.726.13,2.726.389l-.13,1.363q0,.454.259,5.256l-.129.259.129.325-.129.779a.993.993,0,0,0,.129.39q-.13,1.1-.454,1.1h-.13q-.325-.065-.649-.974a2.861,2.861,0,0,1-.519.195q-2.467,0-12.59.519l-.259-.129a1.161,1.161,0,0,1-.519.129h-.389c-.13,0-.2-.043-.2-.129l-.259.129h-4.867a.985.985,0,0,1-.519-.973v-.779q0-1.428-.13-2.986a8.32,8.32,0,0,0,.13-1.492.115.115,0,0,0-.13-.13l.13-.649v-3.375q0-.779.13-2.206a1,1,0,0,1-.13-.389l.13-.779q-.13-2.531-.13-4.477v-.39a4.533,4.533,0,0,1,.13-1.1,3.8,3.8,0,0,1-.13-.909,12.657,12.657,0,0,1,.26-2.726,1.149,1.149,0,0,1-.13-.519,4.527,4.527,0,0,1,.13-1.1c0-.173-.043-.259-.13-.259q.519-10.708.519-14.212v-2.79c0-.087.065-.13.195-.13l-.195-.259v-.325c0-.087.065-.13.195-.13l-.195-.259c0-.087.065-.13.195-.13l-.195-.259q0-1.039-.13-7.853a.992.992,0,0,0,.13-.389h.843q.39,0,.39-.13l.713.13h.26a7.843,7.843,0,0,0,1.882-.259q4.153.259,5,.259" transform="translate(-70.574 -55.933)"/>
        <path id="Pfad_17" data-name="Pfad 17" d="M140.68,134.019a.207.207,0,0,1,.028.112,1,1,0,0,0,.01.112.849.849,0,0,1,.007.188.038.038,0,0,1-.012.025l-.058.063c-.037.028-.035.054-.028.1a.27.27,0,0,1,0,.078.7.7,0,0,0-.028.18.033.033,0,0,1,0,.017.294.294,0,0,0-.012.1c0,.017,0,.034,0,.052a.2.2,0,0,1-.08.149.252.252,0,0,0-.043.049.564.564,0,0,0-.028.074.506.506,0,0,1-.054.122,4.99,4.99,0,0,0-.515,1.282.332.332,0,0,1-.054.1l-.019.028a.2.2,0,0,1-.082.119.177.177,0,0,0-.043.042l-.453.686a.262.262,0,0,1-.085.1.311.311,0,0,0-.043.041l-.283.294-.008.007a.3.3,0,0,0-.034.026.257.257,0,0,1-.078.05.25.25,0,0,0-.069.1.61.61,0,0,1-.036.07.043.043,0,0,1-.015.014.625.625,0,0,0-.131.111.8.8,0,0,1-.131.113.431.431,0,0,1-.213.156.453.453,0,0,0-.14.08.825.825,0,0,0-.109.1.868.868,0,0,1-.125.107l-.378.362a.825.825,0,0,0-.109.1.817.817,0,0,1-.122.1l-.23.22a.631.631,0,0,1-.121.134c-.018.016-.036.032-.052.049l-.138.153a.449.449,0,0,1-.12.131l-.018.018a.452.452,0,0,1-.157.157.2.2,0,0,1-.107.161.733.733,0,0,0-.153.136.714.714,0,0,1-.168.146.632.632,0,0,0-.25.324l-.031.065a4.124,4.124,0,0,1-.382.629.036.036,0,0,1-.012.011.216.216,0,0,1-.042.021.114.114,0,0,1-.023.122,2.961,2.961,0,0,1-.188.488c0,.018-.006.036-.009.054-.012.062-.017.1.014.141a.037.037,0,0,1,.008.012.348.348,0,0,0,.095.123.575.575,0,0,1,.09.1.365.365,0,0,0,.04.032.245.245,0,0,1,.078.077.071.071,0,0,1,.045.05.072.072,0,0,1-.03.061.215.215,0,0,0-.065.115l0,.012-.03.055a.73.73,0,0,0,0,.094.381.381,0,0,1-.04.242c-.023.027-.022.036.01.079a.153.153,0,0,1,.041.123.293.293,0,0,1,.024.127c0,.012,0,.023,0,.034a.22.22,0,0,1,.075.146.232.232,0,0,0,.025.076.2.2,0,0,1,.034.1.206.206,0,0,0,.008.042c0,.019.007.034.01.049a.231.231,0,0,0,.032.1l.1.063.029.022a.207.207,0,0,1,.109.171l.021.014a.047.047,0,0,1,.012.014.3.3,0,0,1,.023.16c0,.015,0,.03,0,.045a.276.276,0,0,1-.032.1l-.142.233a.178.178,0,0,0-.022.029.538.538,0,0,0,.011.209c0,.049,0,.091,0,.133a1.227,1.227,0,0,0,.008.208.04.04,0,0,1,0,.016l-.017.076a.265.265,0,0,1,.01.109c0,.014,0,.029,0,.043a.031.031,0,0,1,0,.016.4.4,0,0,0-.014.133v.023c0,.02,0,.041,0,.061a.809.809,0,0,0,0,.117c0,.013.012.033.02.052l.038.065a.22.22,0,0,1-.022.241.211.211,0,0,1-.062.131.156.156,0,0,0-.041.069.18.18,0,0,1,.014.131c0,.01,0,.019,0,.029a.045.045,0,0,1-.019.032.93.93,0,0,0-.113.1.806.806,0,0,1-.147.122l-.132.1a.153.153,0,0,0-.01.047.155.155,0,0,1-.054.112l-.011.006a1.156,1.156,0,0,0-.283.182c-.037.029-.074.058-.112.085l-.01,0a.318.318,0,0,1-.139.015.261.261,0,0,0-.1.008l-.593.281a.217.217,0,0,0-.113.094.634.634,0,0,1-.075.085.259.259,0,0,0-.095.143.048.048,0,0,1-.008.019.422.422,0,0,1-.067.065.427.427,0,0,0-.048.043l-.007.006-.041.032-.01.005a.094.094,0,0,1-.1-.021l-.01-.007-.32.281a.338.338,0,0,0-.041.031.273.273,0,0,1-.076.05l-.087.084-.049.039a.485.485,0,0,0-.066.056.079.079,0,0,1-.013.032.215.215,0,0,0,.028.282l.1.134a.043.043,0,0,1,0,.044.114.114,0,0,0,0,.08.248.248,0,0,1,.011.1l.021.054a.046.046,0,0,1,0,.03.192.192,0,0,0,.022.144l.01.026a.358.358,0,0,1,.01.055.4.4,0,0,0,.007.044.109.109,0,0,1,.047.192l-.012.016a.153.153,0,0,1-.015.109.122.122,0,0,0-.013.046.03.03,0,0,1,0,.014c0,.016-.01.032-.015.047a.23.23,0,0,0-.017.076.054.054,0,0,1,0,.014.886.886,0,0,0-.049.2.04.04,0,0,1,0,.012c0,.01-.01.02-.014.03a.116.116,0,0,0-.015.034.119.119,0,0,1,.055.065.132.132,0,0,1-.023.111.728.728,0,0,1-.467.373,4.129,4.129,0,0,0-.764.312.123.123,0,0,0-.054.071.4.4,0,0,1-.03.056.213.213,0,0,1-.006.061.119.119,0,0,0,0,.039.034.034,0,0,0,.023.017.108.108,0,0,1,.077.065.037.037,0,0,1,0,.023l-.008.032a.044.044,0,0,1-.008.017.179.179,0,0,0-.028.06.248.248,0,0,1-.044.09.045.045,0,0,1-.016.012l-.01,0a.146.146,0,0,1,0,.093.313.313,0,0,1-.019.073.3.3,0,0,0-.014.054l-.008.032a.439.439,0,0,0-.019.127.041.041,0,0,1,0,.019l-.03.07a.044.044,0,0,1-.017.02c-.018.011-.028.019-.01.068a.044.044,0,0,1,0,.03,1.141,1.141,0,0,1-.438.488,2.139,2.139,0,0,0-.25.208,1.321,1.321,0,0,1-.1.094.762.762,0,0,0-.153.156.045.045,0,0,1-.013.012l-.041.023a.163.163,0,0,0-.074.058.046.046,0,0,1-.009.011l-.363.329q-.636.577-1.27,1.153c-.034.03-.065.062-.1.094l-.045.045a.036.036,0,0,1-.016.01.524.524,0,0,1-.222.018.425.425,0,0,0-.2.017l-.032.047-.006.008a.14.14,0,0,1-.138.03h-.01a.614.614,0,0,0-.193.012l-.027.03-.008.007a.161.161,0,0,1-.144.017h-.048a.26.26,0,0,1-.11-.012l-.076-.01a.692.692,0,0,1-.1-.023c-.08-.024-.132-.036-.19,0a.045.045,0,0,1-.026.008H126.7a.293.293,0,0,1-.129-.014l-.034-.008-.01,0a.31.31,0,0,0-.177-.022c-.03,0-.061,0-.091,0l-.115.118a.059.059,0,0,1-.015.01.761.761,0,0,1-.328.036,1.019,1.019,0,0,0-.2,0,.243.243,0,0,1-.074.012.2.2,0,0,0-.047.007.055.055,0,0,1-.026.032.3.3,0,0,1-.2.065,1.1,1.1,0,0,1-.118-.01l-.072-.008a.046.046,0,0,1-.025-.01c-.04-.032-.08-.063-.121-.094a1.109,1.109,0,0,1-.423-.475,1.754,1.754,0,0,0-.087-.186l-.044-.087a.117.117,0,0,1,0-.109.108.108,0,0,1,.091-.042.1.1,0,0,0,.09-.049.166.166,0,0,0,0-.1.379.379,0,0,1-.01-.075c0-.018,0-.038,0-.057a.5.5,0,0,0,0-.1.16.16,0,0,1-.01-.043.061.061,0,0,0-.008-.028l-.005-.008-.695-1.34a.252.252,0,0,1-.043-.129.189.189,0,0,1-.069-.044l-.177-.173-.006-.008a.521.521,0,0,0-.045-.058.485.485,0,0,1-.056-.075.538.538,0,0,1-.25-.507.21.21,0,0,1-.038-.167.1.1,0,0,1-.027-.076.059.059,0,0,0,0-.017.324.324,0,0,1-.01-.078c0-.05-.006-.078-.036-.1a.043.043,0,0,1-.019-.038.661.661,0,0,1-.013-.217.547.547,0,0,0-.014-.2l-.142-.337a.147.147,0,0,1-.028-.064c-.005-.072,0-.14,0-.206a1.43,1.43,0,0,0-.01-.256.645.645,0,0,1-.007-.15.357.357,0,0,0-.03-.2q-.137-.239-.272-.48c-.225-.4-.457-.813-.707-1.206-.027-.043-.056-.084-.084-.124a.984.984,0,0,1-.221-.5.207.207,0,0,1,.047-.175.1.1,0,0,1,0-.08v-.014a.2.2,0,0,1,.014-.215.389.389,0,0,0,.009-.131.7.7,0,0,1,0-.1l0-.023a.181.181,0,0,1,.086-.167c.03-.014.03-.019.029-.027a.242.242,0,0,1,.029-.13.143.143,0,0,1,.012-.119.1.1,0,0,0,.014-.047.055.055,0,0,1,0-.019.522.522,0,0,0,.016-.063.641.641,0,0,1,.021-.081c.006-.021.012-.043.017-.067a.68.68,0,0,1,.056-.168l0-.016a.132.132,0,0,1,.013-.086.079.079,0,0,0,.009-.034.037.037,0,0,1,0-.021l.063-.172a.317.317,0,0,1,.082-.139.176.176,0,0,1,.083-.084.33.33,0,0,0,.017-.041.228.228,0,0,1,.043-.084.081.081,0,0,1,.041-.065.21.21,0,0,1,.113-.065.128.128,0,0,0,.073-.04.307.307,0,0,0,.033-.087.4.4,0,0,1,.036-.1l0-.045a.212.212,0,0,1,.03-.124l0-.041v0a.281.281,0,0,1,.031-.154l0-.076a.347.347,0,0,1,.012-.11c.015-.071.021-.113-.023-.155a.213.213,0,0,0-.032-.019.15.15,0,0,1-.095-.121c-.014-.042-.032-.083-.049-.123a1.334,1.334,0,0,0-.056-.141l-.011-.03a.212.212,0,0,1-.012-.106l-.01-.031a.2.2,0,0,1,.045-.228.306.306,0,0,0,0-.168.145.145,0,0,1,0-.069c0-.021,0-.03,0-.038a.035.035,0,0,1-.006-.016.626.626,0,0,1-.036-.116.556.556,0,0,0-.041-.122l0-.01a.259.259,0,0,0-.023-.055.253.253,0,0,1-.034-.109l-.026-.036a.716.716,0,0,1-.094-.153l-.039-.083a.5.5,0,0,1-.081-.142l-.008-.017-.012-.033a.263.263,0,0,1-.021-.091v-.01a.052.052,0,0,1,.006-.013.11.11,0,0,1-.052-.063c-.012-.043.008-.089.06-.142.006-.011.012-.022.018-.032a.212.212,0,0,0,.037-.1v-.023a.435.435,0,0,1,.049-.225.537.537,0,0,1,.061-.078c.014-.017.028-.033.041-.051a.2.2,0,0,1,.03-.029l0,0a.06.06,0,0,0-.042,0c-.009,0-.016.016-.022.036a.179.179,0,0,1-.1.106.627.627,0,0,0-.074.037.724.724,0,0,1-.069.036.181.181,0,0,1-.062.012.193.193,0,0,1-.142-.083l-.021-.023a.038.038,0,0,1-.012-.025.2.2,0,0,0-.058-.072.3.3,0,0,1-.067-.076l-.006-.012a.207.207,0,0,0-.039-.056.229.229,0,0,1-.059-.1.45.45,0,0,1-.133-.164l-.012,0a.043.043,0,0,1-.024-.015c-.052-.062-.109-.12-.165-.177s-.094-.1-.138-.146l-.12-.107a2.072,2.072,0,0,1-.426-.457.478.478,0,0,1-.069-.192l-.017-.008a.039.039,0,0,1-.023-.021.363.363,0,0,1-.026-.083.276.276,0,0,0-.023-.071.036.036,0,0,1-.006-.017.17.17,0,0,0-.013-.039.119.119,0,0,1,.029-.163l.01-.026a.041.041,0,0,1,.021-.023.35.35,0,0,0,.058-.042.494.494,0,0,1,.054-.042.238.238,0,0,0,0-.034.148.148,0,0,1,.023-.1l0-.042a.121.121,0,0,1,.04-.091.142.142,0,0,1,.111-.02.2.2,0,0,0,.041,0c0-.007,0-.01,0-.01a.094.094,0,0,0-.03-.016.28.28,0,0,1-.041-.022.1.1,0,0,1-.025-.13l.007-.049a.216.216,0,0,1,.212-.235.738.738,0,0,1,.161-.014h.177a.651.651,0,0,1,.1,0,.292.292,0,0,0,.164-.021.175.175,0,0,0,.025-.133.442.442,0,0,1,0-.085.524.524,0,0,0,0-.057.339.339,0,0,1,.016-.122h-.392c-.043,0-.085,0-.128,0a.2.2,0,0,1-.171-.075.17.17,0,0,1,0-.159l.005-.057a.5.5,0,0,1,.011-.144l0-.03a.17.17,0,0,0-.061-.164l-.01-.006a.239.239,0,0,1-.066-.2.561.561,0,0,0,0-.06.084.084,0,0,1-.085.015c-.019,0-.044-.01-.07-.017s-.053-.014-.08-.02a.059.059,0,0,1-.045-.033c-.014-.029-.028-.055-.042-.08s-.031-.057-.044-.087-.021-.02-.055-.028a.188.188,0,0,1-.083-.034.073.073,0,0,1-.027-.019.1.1,0,0,1-.052-.1.342.342,0,0,1-.043.017c-.054.016-.067.021-.062.063l0,.008a.042.042,0,0,1-.006.03.194.194,0,0,1-.233.08.5.5,0,0,0-.053-.008.043.043,0,0,1-.025-.01.216.216,0,0,0-.138-.031l-.012,0a.279.279,0,0,0-.177,0,.341.341,0,0,1-.2.076.273.273,0,0,1-.124.029.424.424,0,0,1-.149-.032l-.009,0a.4.4,0,0,0-.066-.032c-.065-.027-.145-.06-.162-.164-.009-.019-.019-.039-.03-.057a.651.651,0,0,1-.047-.1.371.371,0,0,1-.056-.175l-.019-.029a.783.783,0,0,0-.283-.3.391.391,0,0,1-.095-.039.394.394,0,0,0-.049-.023.12.12,0,0,0-.023-.008,1.848,1.848,0,0,0-.34-.012,1.935,1.935,0,0,1-.345-.012.043.043,0,0,1-.013,0,.118.118,0,0,1-.014.018.044.044,0,0,1-.034.014.606.606,0,0,0-.153.021.751.751,0,0,1-.164.023.348.348,0,0,1-.059,0,.169.169,0,0,1-.037-.011.161.161,0,0,1-.077.036l-.1.01a.129.129,0,0,1-.079.027.057.057,0,1,0-.089.071.143.143,0,0,1-.168.089.153.153,0,0,0-.129.012l-.047.017-.069.012a.325.325,0,0,0-.19.05.049.049,0,0,1-.023.009.812.812,0,0,0-.31.114c-.04.021-.08.042-.12.061a2.195,2.195,0,0,0-.233.121.512.512,0,0,1-.259.085.359.359,0,0,1-.21-.071.415.415,0,0,1-.171-.048l-.044-.019-.1-.042a.039.039,0,0,1-.012-.008l-.012-.007h0c-.025,0-.05,0-.075,0a.635.635,0,0,1-.2-.012l-.057,0a.042.042,0,0,1-.016,0,.245.245,0,0,0-.12-.012.487.487,0,0,1-.089,0,.412.412,0,0,0-.094.023l-.049.014a.383.383,0,0,1-.087.026.229.229,0,0,0-.093.034.048.048,0,0,1-.017.009l-.032.008a.046.046,0,0,1-.019,0,.243.243,0,0,0-.156.041l-.021.01-.009,0-.057.015a.04.04,0,0,1-.018,0,.24.24,0,0,0-.152.045l-.011,0-.034.009a.043.043,0,0,1-.025,0,.124.124,0,0,0-.082.013.383.383,0,0,1-.054.017.352.352,0,0,1-.075.021.181.181,0,0,0-.088.034.071.071,0,0,1-.058.02.334.334,0,0,0-.184.049.039.039,0,0,1-.023.009l-.033,0h0a.052.052,0,0,1-.018,0,.193.193,0,0,0-.054-.012.212.212,0,0,1-.109-.036.082.082,0,0,1-.018-.014l-.021,0a.242.242,0,0,1-.1-.03.215.215,0,0,0-.055-.02l-.049-.014a1.082,1.082,0,0,1-.173-.065.4.4,0,0,1-.158-.118.7.7,0,0,0-.061-.059q-.187-.152-.371-.3l-.145-.12a.232.232,0,0,1-.1-.064.213.213,0,0,0-.05-.039l-.01-.007-.221-.19a.25.25,0,0,1-.093-.063.25.25,0,0,0-.05-.039l-.186-.135-.4-.233a.042.042,0,0,1-.019-.022.244.244,0,0,0-.089-.1l-.02-.015a.476.476,0,0,1-.188-.206.47.47,0,0,0-.127-.157.039.039,0,0,1-.018-.028,1.128,1.128,0,0,1,0-.344.051.051,0,0,1,0-.025,1.594,1.594,0,0,1-.1-.136.955.955,0,0,0-.146-.191.639.639,0,0,1-.05-.056c-.036-.045-.061-.074-.109-.08a.114.114,0,0,1-.1-.1c0-.021-.008-.034-.015-.038a.045.045,0,0,1-.018-.018.214.214,0,0,1-.019-.095c0-.056,0-.071-.05-.078a.042.042,0,0,1-.036-.036l0-.012a.257.257,0,0,0-.029.012.052.052,0,0,1-.039,0,.1.1,0,0,1-.075-.091h0a.4.4,0,0,1-.107-.107.1.1,0,0,1-.052-.1.078.078,0,0,0,0-.023.038.038,0,0,1,0-.015l0-.048a.584.584,0,0,0,0-.116l0,0a.119.119,0,0,0-.006-.017h0a.081.081,0,0,1-.016.022.137.137,0,0,1-.2,0l-.023-.014a.269.269,0,0,1-.153-.173c0-.016-.016-.021-.066-.028a.317.317,0,0,1-.067-.014.045.045,0,0,1-.028-.035.174.174,0,0,1,0-.074.161.161,0,0,1-.055-.069.049.049,0,0,1,0-.02.53.53,0,0,0,0-.066.371.371,0,0,1,.014-.149h0l.009-.058c0-.009.058-.45.057-.486l-.178-.277a.1.1,0,0,1,0-.153.093.093,0,0,0,.017-.028.039.039,0,0,1,.015-.028c.028-.024.058-.047.088-.069a.513.513,0,0,0,.235-.284l0-.011a.2.2,0,0,0,.017-.088.239.239,0,0,1,.048-.156l.076-.128a.164.164,0,0,1,.052-.041.178.178,0,0,1,.023-.155c.005-.012.012-.023.016-.035l.068-.156a.3.3,0,0,1,.065-.179v-.1a.325.325,0,0,1-.01-.127c0-.013,0-.026,0-.04a.031.031,0,0,1,0-.014.324.324,0,0,0,.012-.108.519.519,0,0,1,.006-.1.373.373,0,0,0,0-.212l-.1-.175a.046.046,0,0,1,0-.032.234.234,0,0,1,.063-.1l.021-.024.086-.112v-.01c0-.013,0-.03,0-.047a.352.352,0,0,0-.01-.13l0-.012c0-.064,0-.1-.045-.116a.165.165,0,0,0-.023-.014.1.1,0,0,1-.061-.107l-.062-.131a.161.161,0,0,1-.007-.067l-.006-.008a.193.193,0,0,1,.025-.166.189.189,0,0,0,.025-.068.041.041,0,0,1,0-.018c.006-.009.01-.019.014-.028a.24.24,0,0,1,.062-.089.494.494,0,0,1,.171-.22.8.8,0,0,0,.1-.1.711.711,0,0,0,.085-.162.537.537,0,0,1,.179-.261l.037-.044a.6.6,0,0,1,.085-.089l.1-.121a.413.413,0,0,1,.121-.133l.013-.01.105-.123a.518.518,0,0,1,.072-.1c.01-.012.021-.023.03-.036a.042.042,0,0,1,.02-.014c.019-.007.024-.017.032-.056a.224.224,0,0,1,.019-.061.357.357,0,0,0,.052-.111.634.634,0,0,1,.032-.084.8.8,0,0,1,.257-.38l.008-.006a.27.27,0,0,1,.14-.061l.085-.067.008,0a.4.4,0,0,0,.093-.071c.02-.018.041-.036.063-.054l.213-.327a.16.16,0,0,1,.138-.091.276.276,0,0,1,.076,0,.11.11,0,0,1,.013-.033.165.165,0,0,1,.142-.066l.03,0a.592.592,0,0,1,.078-.021.531.531,0,0,0,.122-.039,2.548,2.548,0,0,0,1-.676.183.183,0,0,0,.019-.039c0-.009.007-.018.011-.026a.251.251,0,0,0,.058-.175v-.071a.542.542,0,0,0,0-.075.3.3,0,0,1,.03-.178v-.01l0-.031a.635.635,0,0,1,.03-.139l0-.009c.019-.029.038-.058.056-.089a.857.857,0,0,1,.3-.329c.01-.009.012-.029.016-.063a.2.2,0,0,1,.038-.109,1.735,1.735,0,0,1,.7-.5.323.323,0,0,1,.107-.05.231.231,0,0,0,.079-.034l.01-.007.045-.02.01,0,.043-.008a.242.242,0,0,0,.164-.071l.034-.057a2.747,2.747,0,0,1,.369-.516c.012-.014.025-.031.037-.048a.455.455,0,0,1,.153-.145.173.173,0,0,1,.15-.048.19.19,0,0,1,.125.122.417.417,0,0,0,.187.2.112.112,0,0,1,.062,0,.721.721,0,0,0,.142.006c.028,0,.056,0,.083,0h.191a.234.234,0,0,1,.124.03.294.294,0,0,0,.043,0,.175.175,0,0,1,.14.038.55.55,0,0,0,.1.026.57.57,0,0,1,.129.036s0,0,0,0a.1.1,0,0,1,.073.008.216.216,0,0,1,.094-.02.13.13,0,0,0,.059-.01.443.443,0,0,0,.193-.173c.022-.03.045-.059.069-.087a.171.171,0,0,1,.189-.036.353.353,0,0,0,.047.01.309.309,0,0,1,.069.012c.056.014.076.016.1-.014a.024.024,0,0,1,.008-.008.711.711,0,0,0,.074-.065.491.491,0,0,1,.151-.111.393.393,0,0,1,.208-.068.055.055,0,0,1,.021,0c.007,0,.02,0,.039-.009a.135.135,0,0,1,.11-.006.281.281,0,0,1,.166-.014.265.265,0,0,0,.093,0l.469-.078a.335.335,0,0,1,.117-.012.352.352,0,0,0,.067,0,.159.159,0,0,1,.058-.006c.034,0,.038,0,.044-.013a.051.051,0,0,1,.017-.017.081.081,0,0,1,.07,0c.019.011.03.009.057,0a.187.187,0,0,1,.072-.008.445.445,0,0,1,.045,0,.424.424,0,0,0,.109-.009.045.045,0,0,1,.017,0,.749.749,0,0,1,.133.023,1.216,1.216,0,0,0,.24,0,.19.19,0,0,1,.053,0c.025,0,.034,0,.043-.006a.043.043,0,0,1,.012-.008.737.737,0,0,1,.141-.04c.025-.006.05-.01.074-.017a.383.383,0,0,1,.288.058.314.314,0,0,1,.054.008.159.159,0,0,0,.054,0,.179.179,0,0,1,.158-.041.465.465,0,0,1,.193.063l.047.005.042.006a.293.293,0,0,1,.129.036l.012-.006a.542.542,0,0,1,.666-.134l.017,0c.027.008.061.016.069.05.013.052.032.087.051.093s.1-.039.134-.063a.068.068,0,0,1,.074.005l.011.006a.042.042,0,0,1,.013.008.136.136,0,0,1,.043.188.469.469,0,0,1-.118.091.314.314,0,0,0-.114.1c0,.014,0,.029,0,.043,0,.045,0,.068.025.087l.087.061a.254.254,0,0,1,.107.143.4.4,0,0,1,.005.224.5.5,0,0,1-.224.241l-.222.189-.03.023c-.063.047-.08.064-.041.117.019.033.037.05.056.054a.141.141,0,0,0,.1-.034.19.19,0,0,1,.177-.044c.064.025.086.1.1.167l0,.028a.176.176,0,0,0,.036.105.2.2,0,0,0,.034.01.152.152,0,0,1,.105.061.17.17,0,0,1,.022.054h0a.141.141,0,0,1,.105.015h0a.635.635,0,0,0,.118.032c.026.005.052.01.078.018h.022a.483.483,0,0,1,.076,0,.375.375,0,0,0,.2,0l.01,0a1.345,1.345,0,0,1,.157,0,.037.037,0,0,1,.014,0,.748.748,0,0,0,.089.029.6.6,0,0,1,.126.045l.356.1a.414.414,0,0,1,.19.063h.006c.054.005.08.033.078.081a.344.344,0,0,0,0,.08.51.51,0,0,1,0,.08.775.775,0,0,0,.329.289.792.792,0,0,1,.257.065l.191.039a.752.752,0,0,1,.217.061l.05.005a.4.4,0,0,1,.109.022.422.422,0,0,0,.072.017l.009,0,.027.008a.306.306,0,0,1,.116.054.775.775,0,0,1,.083.069.5.5,0,0,0,.127.091c.032,0,.065,0,.1,0a.926.926,0,0,0,.1,0,.671.671,0,0,0,.266-.3l.009-.014V124.9a.316.316,0,0,0-.02-.152l-.011-.019a.347.347,0,0,1-.058-.143.276.276,0,0,1,.015-.169l.01-.033a.337.337,0,0,1,.12-.132.58.58,0,0,0,.057-.047l.008-.006.173-.111.008,0a.438.438,0,0,0,.116-.061.058.058,0,0,1,.042-.025.4.4,0,0,1,.074-.008.243.243,0,0,0,.065-.008.181.181,0,0,1,.107,0,.155.155,0,0,0,.047.006h.1a.04.04,0,0,1,.018,0,.289.289,0,0,0,.074.016.268.268,0,0,1,.135.043l.017,0,.012,0a.449.449,0,0,1,.214.074.042.042,0,0,1,.013.016l.07.147c.021,0,.042.008.064.012a.733.733,0,0,1,.079.016h.087a.044.044,0,0,1,.013,0,.537.537,0,0,0,.162.015.624.624,0,0,1,.18.017.536.536,0,0,1,.211.07.137.137,0,0,1,.067.1.063.063,0,0,1,.009.005.241.241,0,0,0,.206.035l.036,0a.34.34,0,0,1,.193,0l.036.008.116.01.012,0a.424.424,0,0,0,.091.021.48.48,0,0,1,.1.022.813.813,0,0,1,.134.027.738.738,0,0,0,.109.024.083.083,0,0,1,.037.008l.061.012a.485.485,0,0,1,.142.041l.094.011a.621.621,0,0,1,.151.029.511.511,0,0,0,.132.026.055.055,0,0,1,.021.006c.048.027.08.009.136-.028a.535.535,0,0,1,.053-.032c.087-.045.175-.1.259-.145l.109-.063a.228.228,0,0,1,.207-.034.81.81,0,0,0,.166-.037l.025-.007.014,0h.03a.267.267,0,0,1,.1.01h.014a.256.256,0,0,1,.279.025.577.577,0,0,1,.091.063.4.4,0,0,0,.146.083h.079a.994.994,0,0,0,.171-.006l.019,0a.185.185,0,0,0,.086-.031.033.033,0,0,1,.016-.009l.012,0a.17.17,0,0,1,.05-.011c.021,0,.042-.02.065-.041a.127.127,0,0,1,.156-.043.329.329,0,0,1,.133.2c.007.019.014.039.021.058a.42.42,0,0,1,.091.2c.026.047.056.095.086.14a1.046,1.046,0,0,1,.177.383.045.045,0,0,1-.006.03.237.237,0,0,0-.025.074.5.5,0,0,1-.013.054c0,.008,0,.016,0,.025a.419.419,0,0,1,0,.059l0,.01a.188.188,0,0,0-.01.058c0,.013,0,.025,0,.039a.353.353,0,0,0-.014.081A.4.4,0,0,1,132,126l0,.03a.223.223,0,0,1-.107.206.129.129,0,0,1-.177-.037l0,0a.223.223,0,0,1-.093-.065.2.2,0,0,0-.048-.039.04.04,0,0,1-.012-.009l-.1-.1c-.014-.018-.025-.03-.036-.042a.308.308,0,0,1-.069-.1,1.094,1.094,0,0,0-.352-.481.132.132,0,0,0,.006.1l.019.008a.124.124,0,0,1,.092.1.422.422,0,0,1,.011.051.269.269,0,0,0,.039.113l0,.008a1.2,1.2,0,0,0,.336.385l.036.031a.168.168,0,0,1,.052.144.193.193,0,0,0,0,.051l.013.028a.655.655,0,0,1,.028.069l.192.3c.155.243.316.5.468.748a1.6,1.6,0,0,0,.364.458.1.1,0,0,1,.039.062.155.155,0,0,1,0,.066c-.006.029-.006.033,0,.041a.042.042,0,0,1,.012.026l.008.093c0,.017.008.041.011.065a.331.331,0,0,0,.036.13.041.041,0,0,1,0,.034l-.008.025c.052.03.1.058.158.086a1.165,1.165,0,0,1,.538.446.041.041,0,0,1,0,.013.4.4,0,0,1,0,.069.169.169,0,0,0,.014.087.173.173,0,0,0,.047.053.179.179,0,0,1,.081.14.3.3,0,0,1,.04.115.36.36,0,0,0,.016.061l.069.37a.034.034,0,0,1,0,.016.2.2,0,0,0,.029.142.08.08,0,0,1,0,.064.209.209,0,0,0,.03.135.076.076,0,0,1,0,.063.18.18,0,0,0,.029.129h0a.572.572,0,0,1,.309.192.217.217,0,0,0,.1.064l.048.023.01.006a.17.17,0,0,1,.077.139.127.127,0,0,1,.063.047,1.139,1.139,0,0,1,.29.633l.017.072a1.052,1.052,0,0,0,.193.365c.036.053.075.106.109.163.045-.058.078-.071.151-.022a.042.042,0,0,1,.017.023l.009.03c.018.067.032.109.078.129a.114.114,0,0,1,.064-.028.162.162,0,0,1,.114.045.667.667,0,0,0,.2.113c.035.014.069.03.1.047a1,1,0,0,1,.315.314l0,0a.259.259,0,0,0,.052.028.2.2,0,0,1,.118.105,1.7,1.7,0,0,0,.276.235c.04.03.08.06.12.091a.118.118,0,0,1,.038.085h.019a.048.048,0,0,1,.021.008.514.514,0,0,1,.166.176.042.042,0,0,1,0,.03.315.315,0,0,0,0,.078.26.26,0,0,1-.025.151.219.219,0,0,1-.14.086c-.05.014-.08.024-.094.056h.015a.191.191,0,0,1,.034,0h.015a.174.174,0,0,1,.15.065h.01a.226.226,0,0,1,.155.106l.03.036.068.087c.026.023.055.054.084.084a1.216,1.216,0,0,0,.1.1l.013,0,.01,0a.347.347,0,0,1,.1.058c.1.008.2.012.283.011l.317-.2a.22.22,0,0,1,.192-.02.436.436,0,0,0,.045,0h.027a.288.288,0,0,0,.159.006.163.163,0,0,1,.06-.008.071.071,0,0,0,.036-.006l.071-.045a.705.705,0,0,0,.209-.17c.024-.034.058-.013.082,0l.013.008a.045.045,0,0,1,.012.01h.017a.131.131,0,0,1,.057.01.258.258,0,0,0,.126,0,.256.256,0,0,1,.043-.007.245.245,0,0,1,.076-.024.114.114,0,0,0,.064-.023.062.062,0,0,1,.014-.01,2.322,2.322,0,0,1,.5-.158l.047,0a.349.349,0,0,0,.2-.048.472.472,0,0,1,.111-.054.237.237,0,0,0,.12-.074l.01-.01a.2.2,0,0,1,.2-.021.143.143,0,0,1,.176.051.137.137,0,0,1-.019.2c-.025.029-.019.049,0,.1m8.018,3.417a25.838,25.838,0,0,0-.589-3.342,27,27,0,0,0-5.658-11.82,3.266,3.266,0,0,0-1-1.424,35.2,35.2,0,0,1-3.536-3.527,7.342,7.342,0,0,1-3.183-1.485,28.468,28.468,0,0,0-6.129-1.857q-.177,0-.472-.619h-.294l-.589.371a23.867,23.867,0,0,0-3.536-.248,23.508,23.508,0,0,0-3.713.371,3.7,3.7,0,0,0-.943-.124.282.282,0,0,0-.294.248,14.334,14.334,0,0,0-3.419,1.176q0,.557-1.709,1.052a20.194,20.194,0,0,0-7.131,4.765,30.648,30.648,0,0,0-3.654,5.26q-1.887,3.466-2.829,10.273a1.04,1.04,0,0,1,.118.433,15.818,15.818,0,0,1-.472,3.342v.867q.708,4.022,1.238,4.765h-.118a2.489,2.489,0,0,0,.236.928l-.118.5a2.767,2.767,0,0,1,.589,1.423q-.354,1.238-.589,1.3,0,.248.235.248h.236l.472-.371h.177q0,.619.354.619l-.236.5c0,.206.118.309.354.309a32.87,32.87,0,0,0,3.183,5.136,60.627,60.627,0,0,1,4.774,4.518h.118l.354-.309h.413q0,.681.236.681l.589-.124-.118.248.236.371.53-.248.472.619a.876.876,0,0,0,.354-.124.986.986,0,0,0,.649.248v.433q0,.248.236.248h.118q.354-.186.354-.371.708.433.707.619l.884-.124a21.618,21.618,0,0,0,7.014,1.3l.707-.124q0,.124.118.124l.236-.124c0,.083.039.124.118.124h1.237q.354.186.354.371a1.465,1.465,0,0,0,.884-.371h.118l.472.371h.53a1.442,1.442,0,0,0,.707-.248v.124q2.063,0,7.132-2.352a61.223,61.223,0,0,0,8.84-7.8q.943-1.919,2.3-5.446a48.118,48.118,0,0,0,1.356-9.9c-.078,0-.118-.041-.118-.123q.118,0,.118-.124v-.124a.916.916,0,0,0-.118-.5,1.282,1.282,0,0,0,.118-.557v-.124l-.118-.248Z" transform="translate(-33.871 -56.03)"/>
        <path id="Pfad_18" data-name="Pfad 18" d="M150.286,149.982l.054.055a.224.224,0,0,1-.128.221c-.186.111-.3.316-.47.413a1.161,1.161,0,0,0-.44.6,6.048,6.048,0,0,1-.557.916.16.16,0,0,1-.206-.006,5.68,5.68,0,0,0-.709-.445.259.259,0,0,1-.142-.246l-.1-.238a.305.305,0,0,0-.2-.242c-.224-.2-.513-.311-.752-.492-.054-.045-.128-.05-.184-.089l-1.816-1.135a.137.137,0,0,1-.038-.06.219.219,0,0,1,0-.07,8.479,8.479,0,0,1,.624-.966c.091-.145.192-.285.288-.428.012-.019.026-.039.04-.056a2.192,2.192,0,0,0,0-.719.441.441,0,0,0-.083-.059.439.439,0,0,1-.221-.216,2.022,2.022,0,0,0-.093-.287c-.033-.08-.075-.156-.107-.237-.02-.1-.113-.146-.169-.219-.006-.077.055-.12.094-.173a.363.363,0,0,1,.083-.069.74.74,0,0,1,.428-.113c.072,0,.142,0,.214,0a4.694,4.694,0,0,0,.539-.025.329.329,0,0,1,.069,0,1.12,1.12,0,0,0,.235.032,1.539,1.539,0,0,0,.27.021c.258.039.417.242.625.364a2.091,2.091,0,0,1,.217.158.456.456,0,0,0,.3.073.3.3,0,0,1,.065.005c.1.017.192.048.29.058a1.112,1.112,0,0,0,.3.017.673.673,0,0,0,.508-.265.432.432,0,0,1,.318-.166c.133.011.264-.033.4-.017a.3.3,0,0,1,.162.068.4.4,0,0,0,.133.1c.1.039.208.01.307.045.035.017.061.039.056.081a4.157,4.157,0,0,1-.5.7.23.23,0,0,0-.045.106c-.008.2,0,.4,0,.6v1.355c0,.2,0,.4,0,.606a.226.226,0,0,0,.045.107.332.332,0,0,0,.16.155.511.511,0,0,0,.14.188" transform="translate(-47.9 -66.094)" fill="#e74c3c"/>
      </g>
    </g>
  </g>
</svg>
